<svg xmlns="http://www.w3.org/2000/svg" width="1135" height="240" version="1" shape-rendering="geometricPrecision" text-rendering="geometricPrecision" image-rendering="optimizeQuality" fill-rule="evenodd" clip-rule="evenodd" viewBox="0 0 999 211"><path fill="#FEFEFE" d="M102 211h793c55 0 101-48 101-105C996 48 950 1 895 1V0H102h-1C47 0 2 47 2 104s45 107 100 107z"/><path fill="#E31E24" d="M880 114l1-59c-226-1-248 22-248 22l-9-19c36-37 276-42 276-42h99v39h-75v99c-1 25-33 28-33 28h-11v-68zM118 114V55c226-1 248 22 248 22l9-19C339 21 99 16 99 16H0v39h75v99c1 25 33 28 33 28h10v-68z"/><path fill="#E31E24" d="M829 89v36h-35V89h-41v92h41v-35h35v35h41V89zM744 118V89h-83v23h-5s-13-23-39-23h-85s3 22 20 28c2 1 4 2 7 2h47c11 0 19 6 19 14 0 7-8 14-19 14-10 0-19-7-19-14v-8h-36v56h67s28-4 38-26h5v26h83v-26h-47v-7h47v-23h-47v-7h47zM312 140c-10 0-19-6-19-14 0-7 9-14 19-14 11 0 19 7 19 14 0 8-8 14-19 14zm-113 8c-11 0-19-6-19-14 0-7 8-13 19-13 10 0 19 6 19 13 0 8-9 14-19 14zm234-59v38l-24 25V89h-41v16h-4c-6-14-21-16-21-16h-85v46h-1c-21-33-43-52-72-43-29 8-49 60-49 60l-13 29h51c8-11 20-14 31-12 12 3 19 12 19 12h71c1-4 3-18 29-18h17s20-3 23-22h4v40h40v1l25-25v24h41V89h-41zM534 125h-41v22h41v-22z"/></svg>